<svg width="21" height="25" viewBox="0 0 21 25" fill="none" xmlns="http://www.w3.org/2000/svg">
<g filter="url(#filter0_d_17_22)">
<path d="M10.4882 0C7.05271 0 4.25781 2.7949 4.25781 6.23038C4.25781 7.80857 5.25222 10.0384 7.21354 12.8579C8.64711 14.919 10.0571 16.5139 10.1165 16.5808L10.4882 17L10.86 16.5808C10.9193 16.5139 12.3293 14.919 13.763 12.8579C15.7242 10.0384 16.7187 7.80857 16.7187 6.23038C16.7187 2.7949 13.9237 0 10.4882 0ZM12.9525 12.2823C11.9835 13.6763 11.0041 14.876 10.4882 15.4881C9.97355 14.8777 8.99782 13.6825 8.02948 12.2903C6.21226 9.67793 5.2517 7.58237 5.2517 6.23038C5.2517 3.34301 7.60082 0.993889 10.4882 0.993889C13.3757 0.993889 15.7247 3.34301 15.7247 6.23038C15.7247 7.58095 14.7661 9.67365 12.9525 12.2823Z" fill="#005FA3"/>
<path d="M10.4882 2.30267C8.46062 2.30267 6.8111 3.95219 6.8111 5.97979C6.8111 8.00739 8.46062 9.65704 10.4882 9.65704C12.5159 9.65704 14.1655 8.00739 14.1655 5.97979C14.1655 3.95219 12.5159 2.30267 10.4882 2.30267ZM10.4882 8.66315C9.00873 8.66315 7.80499 7.4594 7.80499 5.97979C7.80499 4.50031 9.00873 3.29656 10.4882 3.29656C11.9678 3.29656 13.1716 4.50031 13.1716 5.97979C13.1716 7.4594 11.9678 8.66315 10.4882 8.66315Z" fill="#005FA3"/>
</g>
<defs>
<filter id="filter0_d_17_22" x="-2" y="0" width="25" height="25" filterUnits="userSpaceOnUse" color-interpolation-filters="sRGB">
<feFlood flood-opacity="0" result="BackgroundImageFix"/>
<feColorMatrix in="SourceAlpha" type="matrix" values="0 0 0 0 0 0 0 0 0 0 0 0 0 0 0 0 0 0 127 0" result="hardAlpha"/>
<feOffset dy="4"/>
<feGaussianBlur stdDeviation="2"/>
<feComposite in2="hardAlpha" operator="out"/>
<feColorMatrix type="matrix" values="0 0 0 0 0 0 0 0 0 0 0 0 0 0 0 0 0 0 0.25 0"/>
<feBlend mode="normal" in2="BackgroundImageFix" result="effect1_dropShadow_17_22"/>
<feBlend mode="normal" in="SourceGraphic" in2="effect1_dropShadow_17_22" result="shape"/>
</filter>
</defs>
</svg>
